<svg width="18" height="18" viewBox="0 0 18 18" fill="none" xmlns="http://www.w3.org/2000/svg">
<circle cx="8.7" cy="8.7" r="8.7" fill="#FFA542"/>
<path d="M12.8075 12.695V14H5.26252V12.98L9.53752 8.855C10.0575 8.355 10.4075 7.925 10.5875 7.565C10.7675 7.195 10.8575 6.825 10.8575 6.455C10.8575 5.905 10.6625 5.48 10.2725 5.18C9.89252 4.87 9.34252 4.715 8.62252 4.715C7.46252 4.715 6.56752 5.095 5.93752 5.855L4.91752 4.97C5.32752 4.47 5.86252 4.08 6.52252 3.8C7.19252 3.52 7.93752 3.38 8.75752 3.38C9.85752 3.38 10.7325 3.645 11.3825 4.175C12.0325 4.695 12.3575 5.405 12.3575 6.305C12.3575 6.865 12.2375 7.395 11.9975 7.895C11.7575 8.395 11.3025 8.965 10.6325 9.605L7.42252 12.695H12.8075Z" fill="white"/>
</svg>
