<svg width="316" height="68" viewBox="0 0 316 68" fill="none" xmlns="http://www.w3.org/2000/svg">
<path d="M9.40096 14.246H3.45096L2.27796 17H-3.90685e-05L5.35496 5.1H7.53096L12.903 17H10.591L9.40096 14.246ZM8.66996 12.512L6.42596 7.31L4.19896 12.512H8.66996ZM19.2444 7.82C20.1284 7.82 20.916 8.01267 21.6074 8.398C22.31 8.78333 22.8597 9.32733 23.2564 10.03C23.653 10.7327 23.8514 11.543 23.8514 12.461C23.8514 13.379 23.653 14.195 23.2564 14.909C22.8597 15.6117 22.31 16.1557 21.6074 16.541C20.916 16.9263 20.1284 17.119 19.2444 17.119C18.0204 17.119 17.0514 16.711 16.3374 15.895V20.298H14.2124V7.922H16.2354V9.112C16.5867 8.68133 17.0174 8.35833 17.5274 8.143C18.0487 7.92767 18.621 7.82 19.2444 7.82ZM19.0064 15.3C19.7884 15.3 20.4287 15.0393 20.9274 14.518C21.4374 13.9967 21.6924 13.311 21.6924 12.461C21.6924 11.611 21.4374 10.9253 20.9274 10.404C20.4287 9.88267 19.7884 9.622 19.0064 9.622C18.4964 9.622 18.0374 9.741 17.6294 9.979C17.2214 10.2057 16.8984 10.5343 16.6604 10.965C16.4224 11.3957 16.3034 11.8943 16.3034 12.461C16.3034 13.0277 16.4224 13.5263 16.6604 13.957C16.8984 14.3877 17.2214 14.722 17.6294 14.96C18.0374 15.1867 18.4964 15.3 19.0064 15.3ZM30.8987 7.82C31.7827 7.82 32.5703 8.01267 33.2617 8.398C33.9643 8.78333 34.514 9.32733 34.9107 10.03C35.3073 10.7327 35.5057 11.543 35.5057 12.461C35.5057 13.379 35.3073 14.195 34.9107 14.909C34.514 15.6117 33.9643 16.1557 33.2617 16.541C32.5703 16.9263 31.7827 17.119 30.8987 17.119C29.6747 17.119 28.7057 16.711 27.9917 15.895V20.298H25.8667V7.922H27.8897V9.112C28.241 8.68133 28.6717 8.35833 29.1817 8.143C29.703 7.92767 30.2753 7.82 30.8987 7.82ZM30.6607 15.3C31.4427 15.3 32.083 15.0393 32.5817 14.518C33.0917 13.9967 33.3467 13.311 33.3467 12.461C33.3467 11.611 33.0917 10.9253 32.5817 10.404C32.083 9.88267 31.4427 9.622 30.6607 9.622C30.1507 9.622 29.6917 9.741 29.2837 9.979C28.8757 10.2057 28.5527 10.5343 28.3147 10.965C28.0767 11.3957 27.9577 11.8943 27.9577 12.461C27.9577 13.0277 28.0767 13.5263 28.3147 13.957C28.5527 14.3877 28.8757 14.722 29.2837 14.96C29.6917 15.1867 30.1507 15.3 30.6607 15.3ZM37.521 4.386H39.646V17H37.521V4.386ZM50.969 12.512C50.969 12.6593 50.9577 12.869 50.935 13.141H43.812C43.9367 13.8097 44.2597 14.3423 44.781 14.739C45.3137 15.1243 45.971 15.317 46.753 15.317C47.7503 15.317 48.572 14.9883 49.218 14.331L50.357 15.64C49.949 16.1273 49.4333 16.4957 48.81 16.745C48.1867 16.9943 47.484 17.119 46.702 17.119C45.7047 17.119 44.8263 16.9207 44.067 16.524C43.3077 16.1273 42.7183 15.5777 42.299 14.875C41.891 14.161 41.687 13.3563 41.687 12.461C41.687 11.577 41.8853 10.7837 42.282 10.081C42.69 9.367 43.251 8.81167 43.965 8.415C44.679 8.01833 45.4837 7.82 46.379 7.82C47.263 7.82 48.0507 8.01833 48.742 8.415C49.4447 8.80033 49.9887 9.35 50.374 10.064C50.7707 10.7667 50.969 11.5827 50.969 12.512ZM46.379 9.52C45.699 9.52 45.121 9.724 44.645 10.132C44.1803 10.5287 43.897 11.0613 43.795 11.73H48.946C48.8553 11.0727 48.5777 10.54 48.113 10.132C47.6483 9.724 47.0703 9.52 46.379 9.52ZM66.3445 10.812C67.0018 11.0273 67.5231 11.39 67.9085 11.9C68.2938 12.3987 68.4865 13.022 68.4865 13.77C68.4865 14.8013 68.0898 15.6003 67.2965 16.167C66.5031 16.7223 65.3471 17 63.8285 17H57.9125V5.1H63.4885C64.8938 5.1 65.9761 5.37767 66.7355 5.933C67.4948 6.477 67.8745 7.23067 67.8745 8.194C67.8745 8.78333 67.7385 9.30467 67.4665 9.758C67.1945 10.2113 66.8205 10.5627 66.3445 10.812ZM60.1225 6.834V10.115H63.2505C64.0211 10.115 64.6105 9.979 65.0185 9.707C65.4378 9.42367 65.6475 9.01567 65.6475 8.483C65.6475 7.939 65.4378 7.531 65.0185 7.259C64.6105 6.97567 64.0211 6.834 63.2505 6.834H60.1225ZM63.6925 15.266C65.4038 15.266 66.2595 14.6937 66.2595 13.549C66.2595 12.4043 65.4038 11.832 63.6925 11.832H60.1225V15.266H63.6925ZM75.73 12.801V17H73.52V12.835L68.845 5.1H71.208L74.693 10.897L78.212 5.1H80.388L75.73 12.801ZM91.0833 15.13V17H80.9343V15.521L87.9383 6.97H81.0533V5.1H90.8623V6.579L83.8583 15.13H91.0833ZM101.495 17.17C100.577 17.17 99.6873 17.0397 98.826 16.779C97.976 16.5183 97.3017 16.1727 96.803 15.742L97.568 14.025C98.0553 14.4103 98.6503 14.7277 99.353 14.977C100.067 15.215 100.781 15.334 101.495 15.334C102.379 15.334 103.036 15.1923 103.467 14.909C103.909 14.6257 104.13 14.2517 104.13 13.787C104.13 13.447 104.005 13.1693 103.756 12.954C103.518 12.7273 103.212 12.5517 102.838 12.427C102.464 12.3023 101.954 12.1607 101.308 12.002C100.401 11.7867 99.6647 11.5713 99.098 11.356C98.5427 11.1407 98.061 10.8063 97.653 10.353C97.2563 9.88833 97.058 9.265 97.058 8.483C97.058 7.82567 97.2337 7.23067 97.585 6.698C97.9477 6.154 98.486 5.72333 99.2 5.406C99.9253 5.08867 100.809 4.93 101.852 4.93C102.577 4.93 103.291 5.02067 103.994 5.202C104.697 5.38333 105.303 5.644 105.813 5.984L105.116 7.701C104.595 7.395 104.051 7.16267 103.484 7.004C102.917 6.84533 102.368 6.766 101.835 6.766C100.962 6.766 100.311 6.91333 99.88 7.208C99.4607 7.50267 99.251 7.89367 99.251 8.381C99.251 8.721 99.37 8.99867 99.608 9.214C99.8573 9.42933 100.169 9.59933 100.543 9.724C100.917 9.84867 101.427 9.99033 102.073 10.149C102.957 10.353 103.682 10.5683 104.249 10.795C104.816 11.0103 105.297 11.3447 105.694 11.798C106.102 12.2513 106.306 12.8633 106.306 13.634C106.306 14.2913 106.125 14.8863 105.762 15.419C105.411 15.9517 104.872 16.3767 104.147 16.694C103.422 17.0113 102.538 17.17 101.495 17.17ZM115.365 10.744C115.989 11.0273 116.465 11.4127 116.793 11.9C117.133 12.376 117.303 12.937 117.303 13.583C117.303 14.3083 117.099 14.943 116.691 15.487C116.295 16.031 115.728 16.4503 114.991 16.745C114.255 17.0283 113.399 17.17 112.424 17.17C111.45 17.17 110.594 17.0283 109.857 16.745C109.132 16.4503 108.571 16.031 108.174 15.487C107.778 14.943 107.579 14.3083 107.579 13.583C107.579 12.937 107.744 12.376 108.072 11.9C108.401 11.4127 108.871 11.0273 109.483 10.744C109.007 10.4833 108.639 10.1433 108.378 9.724C108.129 9.29333 108.004 8.80033 108.004 8.245C108.004 7.57633 108.186 6.99267 108.548 6.494C108.922 5.99533 109.444 5.61 110.112 5.338C110.781 5.066 111.552 4.93 112.424 4.93C113.308 4.93 114.085 5.066 114.753 5.338C115.422 5.61 115.943 5.99533 116.317 6.494C116.691 6.99267 116.878 7.57633 116.878 8.245C116.878 8.80033 116.748 9.28767 116.487 9.707C116.227 10.1263 115.853 10.472 115.365 10.744ZM112.424 6.664C111.733 6.664 111.183 6.81133 110.775 7.106C110.379 7.40067 110.18 7.81433 110.18 8.347C110.18 8.857 110.379 9.265 110.775 9.571C111.183 9.86567 111.733 10.013 112.424 10.013C113.127 10.013 113.682 9.86567 114.09 9.571C114.498 9.265 114.702 8.857 114.702 8.347C114.702 7.81433 114.493 7.40067 114.073 7.106C113.665 6.81133 113.116 6.664 112.424 6.664ZM112.424 15.436C113.24 15.436 113.886 15.266 114.362 14.926C114.838 14.586 115.076 14.1157 115.076 13.515C115.076 12.9257 114.838 12.461 114.362 12.121C113.886 11.781 113.24 11.611 112.424 11.611C111.608 11.611 110.968 11.781 110.503 12.121C110.039 12.461 109.806 12.9257 109.806 13.515C109.806 14.1157 110.039 14.586 110.503 14.926C110.968 15.266 111.608 15.436 112.424 15.436ZM122.46 9.707C124.138 9.707 125.379 10.0357 126.183 10.693C126.988 11.339 127.39 12.223 127.39 13.345C127.39 14.059 127.215 14.705 126.863 15.283C126.512 15.861 125.985 16.32 125.282 16.66C124.58 17 123.713 17.17 122.681 17.17C121.831 17.17 121.01 17.051 120.216 16.813C119.423 16.5637 118.754 16.2237 118.21 15.793L119.145 14.076C119.587 14.4387 120.114 14.7277 120.726 14.943C121.35 15.147 121.99 15.249 122.647 15.249C123.429 15.249 124.041 15.0903 124.483 14.773C124.937 14.4443 125.163 13.9967 125.163 13.43C125.163 12.818 124.92 12.359 124.432 12.053C123.956 11.7357 123.135 11.577 121.967 11.577H119.094L119.706 5.1H126.693V6.953H121.576L121.321 9.707H122.46ZM137.201 15.13V17H128.429V15.521L133.155 11.033C133.688 10.523 134.045 10.081 134.226 9.707C134.419 9.32167 134.515 8.942 134.515 8.568C134.515 8.01267 134.328 7.58767 133.954 7.293C133.58 6.99833 133.03 6.851 132.305 6.851C131.092 6.851 130.163 7.26467 129.517 8.092L127.97 6.902C128.435 6.27867 129.058 5.797 129.84 5.457C130.633 5.10567 131.517 4.93 132.492 4.93C133.784 4.93 134.815 5.236 135.586 5.848C136.357 6.46 136.742 7.293 136.742 8.347C136.742 8.993 136.606 9.59933 136.334 10.166C136.062 10.7327 135.541 11.3787 134.77 12.104L131.591 15.13H137.201ZM139.327 5.1H141.537V17H139.327V5.1Z" fill="#1C1C27"/>
<path d="M193.686 16.5972V18.7058H183.795V17.0381L189.124 11.9776C189.724 11.4025 190.127 10.9041 190.331 10.4824C190.549 10.0479 190.657 9.61982 190.657 9.19811C190.657 8.57193 190.446 8.09271 190.025 7.76045C189.603 7.4282 188.983 7.26207 188.165 7.26207C186.798 7.26207 185.75 7.72851 185.022 8.66139L183.277 7.31957C183.801 6.61672 184.504 6.0736 185.386 5.69023C186.28 5.29408 187.277 5.096 188.376 5.096C189.833 5.096 190.996 5.44104 191.865 6.13111C192.734 6.82119 193.168 7.76045 193.168 8.94892C193.168 9.67733 193.015 10.361 192.708 11C192.402 11.6389 191.814 12.3673 190.945 13.1852L187.36 16.5972H193.686ZM199.648 5.096C201.488 5.096 202.913 5.67106 203.923 6.82119C204.945 7.97131 205.456 9.61982 205.456 11.7667C205.456 13.2747 205.181 14.5654 204.632 15.6388C204.082 16.6995 203.309 17.511 202.313 18.0732C201.329 18.6227 200.185 18.8975 198.881 18.8975C198.191 18.8975 197.54 18.8272 196.926 18.6866C196.326 18.5333 195.802 18.316 195.354 18.0349L196.274 16.1564C196.939 16.5909 197.789 16.8081 198.824 16.8081C200.115 16.8081 201.124 16.412 201.852 15.6196C202.581 14.8273 202.945 13.6836 202.945 12.1884V12.1693C202.549 12.6293 202.044 12.9807 201.431 13.2235C200.817 13.4536 200.127 13.5686 199.361 13.5686C198.479 13.5686 197.686 13.4025 196.984 13.0702C196.281 12.7252 195.731 12.2396 195.335 11.6134C194.939 10.9872 194.741 10.2652 194.741 9.4473C194.741 8.57832 194.958 7.81796 195.393 7.16622C195.827 6.50171 196.415 5.99054 197.156 5.63272C197.897 5.27491 198.728 5.096 199.648 5.096ZM199.84 11.6134C200.645 11.6134 201.297 11.3961 201.795 10.9616C202.306 10.5271 202.562 9.97764 202.562 9.31312C202.562 8.66139 202.313 8.12466 201.814 7.70295C201.329 7.26846 200.651 7.05121 199.782 7.05121C199.003 7.05121 198.37 7.26207 197.885 7.68378C197.399 8.09271 197.156 8.64222 197.156 9.33229C197.156 10.0351 197.399 10.591 197.885 11C198.37 11.4089 199.022 11.6134 199.84 11.6134ZM216.767 16.5972V18.7058H206.876V17.0381L212.205 11.9776C212.806 11.4025 213.208 10.9041 213.413 10.4824C213.63 10.0479 213.738 9.61982 213.738 9.19811C213.738 8.57193 213.528 8.09271 213.106 7.76045C212.684 7.4282 212.064 7.26207 211.247 7.26207C209.879 7.26207 208.831 7.72851 208.103 8.66139L206.358 7.31957C206.882 6.61672 207.585 6.0736 208.467 5.69023C209.362 5.29408 210.358 5.096 211.457 5.096C212.914 5.096 214.077 5.44104 214.946 6.13111C215.815 6.82119 216.25 7.76045 216.25 8.94892C216.25 9.67733 216.096 10.361 215.79 11C215.483 11.6389 214.895 12.3673 214.026 13.1852L210.441 16.5972H216.767ZM228.27 5.28769V6.95537L223.056 18.7058H220.392L225.433 7.39625H220.162V9.67733H217.843V5.28769H228.27ZM235.607 5.28769H246.975V6.64867H235.607V5.28769ZM240.055 9.29395H235.607V7.93297H246.975V9.29395H242.527V18.7058H240.055V9.29395Z" fill="#DF6464"/>
<path d="M274.807 12.2874H279.288V13.9819H274.807V12.2874ZM288.919 15.872V17.6642H280.512V16.2467L285.041 11.9452C285.552 11.4564 285.894 11.0328 286.068 10.6744C286.253 10.305 286.345 9.94116 286.345 9.5827C286.345 9.05045 286.166 8.64311 285.807 8.36069C285.449 8.07827 284.922 7.93706 284.227 7.93706C283.065 7.93706 282.174 8.33354 281.555 9.12648L280.072 7.98594C280.517 7.38852 281.115 6.92687 281.864 6.601C282.625 6.26427 283.472 6.09591 284.406 6.09591C285.644 6.09591 286.633 6.38919 287.371 6.97575C288.11 7.56231 288.479 8.36069 288.479 9.37089C288.479 9.99004 288.349 10.5712 288.088 11.1143C287.828 11.6574 287.328 12.2765 286.589 12.9717L283.542 15.872H288.919ZM294.852 17.8272C293.939 17.8272 293.125 17.5991 292.408 17.1429C291.691 16.6758 291.126 16.0023 290.713 15.1225C290.3 14.2318 290.094 13.1781 290.094 11.9615C290.094 10.745 290.3 9.69676 290.713 8.81691C291.126 7.9262 291.691 7.25274 292.408 6.79652C293.125 6.32944 293.939 6.09591 294.852 6.09591C295.764 6.09591 296.579 6.32944 297.296 6.79652C298.024 7.25274 298.594 7.9262 299.007 8.81691C299.419 9.69676 299.626 10.745 299.626 11.9615C299.626 13.1781 299.419 14.2318 299.007 15.1225C298.594 16.0023 298.024 16.6758 297.296 17.1429C296.579 17.5991 295.764 17.8272 294.852 17.8272ZM294.852 15.986C295.666 15.986 296.307 15.6493 296.774 14.9758C297.252 14.3024 297.491 13.2976 297.491 11.9615C297.491 10.6255 297.252 9.62072 296.774 8.94726C296.307 8.2738 295.666 7.93706 294.852 7.93706C294.048 7.93706 293.407 8.2738 292.929 8.94726C292.462 9.62072 292.229 10.6255 292.229 11.9615C292.229 13.2976 292.462 14.3024 292.929 14.9758C293.407 15.6493 294.048 15.986 294.852 15.986ZM303.599 12.4015C302.784 12.4015 302.127 12.1136 301.627 11.5379C301.128 10.9622 300.878 10.2073 300.878 9.27313C300.878 8.33897 301.128 7.58404 301.627 7.00834C302.127 6.43264 302.784 6.14479 303.599 6.14479C304.414 6.14479 305.071 6.43264 305.57 7.00834C306.081 7.57318 306.336 8.32811 306.336 9.27313C306.336 10.2181 306.081 10.9785 305.57 11.5542C305.071 12.119 304.414 12.4015 303.599 12.4015ZM310.442 6.25884H312.039L304.251 17.6642H302.654L310.442 6.25884ZM303.599 11.2609C304.044 11.2609 304.386 11.0871 304.625 10.7395C304.875 10.3919 305 9.90314 305 9.27313C305 8.64311 304.875 8.15431 304.625 7.80672C304.386 7.45912 304.044 7.28533 303.599 7.28533C303.175 7.28533 302.833 7.46455 302.572 7.82301C302.323 8.1706 302.198 8.65397 302.198 9.27313C302.198 9.89228 302.323 10.3811 302.572 10.7395C302.833 11.0871 303.175 11.2609 303.599 11.2609ZM311.078 17.7783C310.263 17.7783 309.606 17.4904 309.106 16.9147C308.606 16.339 308.357 15.5841 308.357 14.65C308.357 13.7158 308.606 12.9609 309.106 12.3852C309.606 11.8095 310.263 11.5216 311.078 11.5216C311.892 11.5216 312.549 11.8095 313.049 12.3852C313.56 12.9609 313.815 13.7158 313.815 14.65C313.815 15.5841 313.56 16.339 313.049 16.9147C312.549 17.4904 311.892 17.7783 311.078 17.7783ZM311.078 16.6378C311.512 16.6378 311.854 16.464 312.104 16.1164C312.354 15.7579 312.479 15.2691 312.479 14.65C312.479 14.0308 312.354 13.5474 312.104 13.1998C311.854 12.8414 311.512 12.6622 311.078 12.6622C310.643 12.6622 310.301 12.836 310.051 13.1836C309.801 13.5311 309.676 14.0199 309.676 14.65C309.676 15.28 309.801 15.7688 310.051 16.1164C310.301 16.464 310.643 16.6378 311.078 16.6378Z" fill="#DF6464"/>
<path d="M196.667 31.7995C197.596 31.9146 198.306 32.2308 198.795 32.7484C199.283 33.266 199.528 33.9129 199.528 34.6892C199.528 35.2739 199.379 35.8058 199.082 36.285C198.785 36.7643 198.334 37.1476 197.731 37.4352C197.136 37.7131 196.408 37.8521 195.545 37.8521C194.827 37.8521 194.132 37.7514 193.461 37.5502C192.799 37.3393 192.234 37.0518 191.764 36.6876L192.569 35.2355C192.934 35.5422 193.375 35.7866 193.892 35.9687C194.419 36.1413 194.961 36.2275 195.517 36.2275C196.178 36.2275 196.696 36.0933 197.069 35.825C197.453 35.547 197.644 35.1732 197.644 34.7036C197.644 34.234 197.462 33.8698 197.098 33.611C196.743 33.3426 196.197 33.2084 195.459 33.2084H194.539V31.9289L196.825 29.2118H192.253V27.6447H199.111V28.8955L196.667 31.7995ZM203.758 31.5408C205.177 31.5408 206.226 31.8187 206.907 32.3746C207.587 32.9209 207.927 33.6685 207.927 34.6174C207.927 35.2212 207.779 35.7675 207.482 36.2563C207.185 36.7451 206.739 37.1333 206.145 37.4208C205.551 37.7083 204.817 37.8521 203.945 37.8521C203.226 37.8521 202.531 37.7514 201.861 37.5502C201.19 37.3393 200.624 37.0518 200.164 36.6876L200.955 35.2355C201.329 35.5422 201.774 35.7866 202.292 35.9687C202.819 36.1413 203.36 36.2275 203.916 36.2275C204.578 36.2275 205.095 36.0933 205.469 35.825C205.852 35.547 206.044 35.1685 206.044 34.6892C206.044 34.1717 205.838 33.7835 205.426 33.5247C205.023 33.2564 204.329 33.1222 203.341 33.1222H200.912L201.429 27.6447H207.338V29.2118H203.011L202.795 31.5408H203.758ZM216.224 36.1269V37.7083H208.806V36.4576L212.803 32.6621C213.253 32.2308 213.555 31.8571 213.708 31.5408C213.871 31.2149 213.953 30.8938 213.953 30.5775C213.953 30.1079 213.795 29.7485 213.478 29.4993C213.162 29.2501 212.697 29.1255 212.084 29.1255C211.058 29.1255 210.272 29.4753 209.726 30.175L208.418 29.1686C208.811 28.6415 209.338 28.2342 209.999 27.9466C210.67 27.6495 211.418 27.501 212.242 27.501C213.334 27.501 214.207 27.7597 214.858 28.2773C215.51 28.7948 215.836 29.4993 215.836 30.3906C215.836 30.937 215.721 31.4497 215.491 31.9289C215.261 32.4082 214.82 32.9545 214.168 33.5679L211.48 36.1269H216.224ZM224.852 27.6447V28.8955L220.941 37.7083H218.943L222.724 29.2261H218.77V30.937H217.031V27.6447H224.852ZM230.354 27.6447H238.88V28.6655H230.354V27.6447ZM233.69 30.6494H230.354V29.6287H238.88V30.6494H235.544V37.7083H233.69V30.6494Z" fill="#AAAAAA"/>
<rect x="191.75" y="31.3758" width="46.9634" height="1.91687" fill="#DF6464"/>
<path d="M44.7745 61.297H42.6665V64H40.5245V61.297H33.9965V59.767L39.8615 52.1H42.2245L36.6995 59.427H40.5925V57.03H42.6665V59.427H44.7745V61.297ZM47.3626 64.119C46.9772 64.119 46.6486 63.9887 46.3766 63.728C46.1046 63.456 45.9686 63.116 45.9686 62.708C45.9686 62.2887 46.0989 61.9487 46.3596 61.688C46.6316 61.4273 46.9659 61.297 47.3626 61.297C47.7592 61.297 48.0879 61.4273 48.3486 61.688C48.6206 61.9487 48.7566 62.2887 48.7566 62.708C48.7566 63.116 48.6206 63.456 48.3486 63.728C48.0766 63.9887 47.7479 64.119 47.3626 64.119ZM58.9139 52.1V53.579L54.2899 64H51.9269L56.3979 53.97H51.7229V55.993H49.6659V52.1H58.9139Z" fill="#838383"/>
<path d="M11.751 63.6026L4.54039 67.9608L6.50068 59.8272L0.0849609 54.3886L8.50635 53.7209L11.751 46L14.9957 53.7209L23.4183 54.3886L17.0014 59.8272L18.9616 67.9608L11.751 63.6026Z" fill="#FFCE7F"/>
</svg>
