<svg width="308" height="68" viewBox="0 0 308 68" fill="none" xmlns="http://www.w3.org/2000/svg">
<path d="M9.40096 14.246H3.45096L2.27796 17H-3.90685e-05L5.35496 5.1H7.53096L12.903 17H10.591L9.40096 14.246ZM8.66996 12.512L6.42596 7.31L4.19896 12.512H8.66996ZM19.2444 7.82C20.1284 7.82 20.916 8.01267 21.6074 8.398C22.31 8.78333 22.8597 9.32733 23.2564 10.03C23.653 10.7327 23.8514 11.543 23.8514 12.461C23.8514 13.379 23.653 14.195 23.2564 14.909C22.8597 15.6117 22.31 16.1557 21.6074 16.541C20.916 16.9263 20.1284 17.119 19.2444 17.119C18.0204 17.119 17.0514 16.711 16.3374 15.895V20.298H14.2124V7.922H16.2354V9.112C16.5867 8.68133 17.0174 8.35833 17.5274 8.143C18.0487 7.92767 18.621 7.82 19.2444 7.82ZM19.0064 15.3C19.7884 15.3 20.4287 15.0393 20.9274 14.518C21.4374 13.9967 21.6924 13.311 21.6924 12.461C21.6924 11.611 21.4374 10.9253 20.9274 10.404C20.4287 9.88267 19.7884 9.622 19.0064 9.622C18.4964 9.622 18.0374 9.741 17.6294 9.979C17.2214 10.2057 16.8984 10.5343 16.6604 10.965C16.4224 11.3957 16.3034 11.8943 16.3034 12.461C16.3034 13.0277 16.4224 13.5263 16.6604 13.957C16.8984 14.3877 17.2214 14.722 17.6294 14.96C18.0374 15.1867 18.4964 15.3 19.0064 15.3ZM30.8987 7.82C31.7827 7.82 32.5703 8.01267 33.2617 8.398C33.9643 8.78333 34.514 9.32733 34.9107 10.03C35.3073 10.7327 35.5057 11.543 35.5057 12.461C35.5057 13.379 35.3073 14.195 34.9107 14.909C34.514 15.6117 33.9643 16.1557 33.2617 16.541C32.5703 16.9263 31.7827 17.119 30.8987 17.119C29.6747 17.119 28.7057 16.711 27.9917 15.895V20.298H25.8667V7.922H27.8897V9.112C28.241 8.68133 28.6717 8.35833 29.1817 8.143C29.703 7.92767 30.2753 7.82 30.8987 7.82ZM30.6607 15.3C31.4427 15.3 32.083 15.0393 32.5817 14.518C33.0917 13.9967 33.3467 13.311 33.3467 12.461C33.3467 11.611 33.0917 10.9253 32.5817 10.404C32.083 9.88267 31.4427 9.622 30.6607 9.622C30.1507 9.622 29.6917 9.741 29.2837 9.979C28.8757 10.2057 28.5527 10.5343 28.3147 10.965C28.0767 11.3957 27.9577 11.8943 27.9577 12.461C27.9577 13.0277 28.0767 13.5263 28.3147 13.957C28.5527 14.3877 28.8757 14.722 29.2837 14.96C29.6917 15.1867 30.1507 15.3 30.6607 15.3ZM37.521 4.386H39.646V17H37.521V4.386ZM50.969 12.512C50.969 12.6593 50.9577 12.869 50.935 13.141H43.812C43.9367 13.8097 44.2597 14.3423 44.781 14.739C45.3137 15.1243 45.971 15.317 46.753 15.317C47.7503 15.317 48.572 14.9883 49.218 14.331L50.357 15.64C49.949 16.1273 49.4333 16.4957 48.81 16.745C48.1867 16.9943 47.484 17.119 46.702 17.119C45.7047 17.119 44.8263 16.9207 44.067 16.524C43.3077 16.1273 42.7183 15.5777 42.299 14.875C41.891 14.161 41.687 13.3563 41.687 12.461C41.687 11.577 41.8853 10.7837 42.282 10.081C42.69 9.367 43.251 8.81167 43.965 8.415C44.679 8.01833 45.4837 7.82 46.379 7.82C47.263 7.82 48.0507 8.01833 48.742 8.415C49.4447 8.80033 49.9887 9.35 50.374 10.064C50.7707 10.7667 50.969 11.5827 50.969 12.512ZM46.379 9.52C45.699 9.52 45.121 9.724 44.645 10.132C44.1803 10.5287 43.897 11.0613 43.795 11.73H48.946C48.8553 11.0727 48.5777 10.54 48.113 10.132C47.6483 9.724 47.0703 9.52 46.379 9.52ZM66.3445 10.812C67.0018 11.0273 67.5231 11.39 67.9085 11.9C68.2938 12.3987 68.4865 13.022 68.4865 13.77C68.4865 14.8013 68.0898 15.6003 67.2965 16.167C66.5031 16.7223 65.3471 17 63.8285 17H57.9125V5.1H63.4885C64.8938 5.1 65.9761 5.37767 66.7355 5.933C67.4948 6.477 67.8745 7.23067 67.8745 8.194C67.8745 8.78333 67.7385 9.30467 67.4665 9.758C67.1945 10.2113 66.8205 10.5627 66.3445 10.812ZM60.1225 6.834V10.115H63.2505C64.0211 10.115 64.6105 9.979 65.0185 9.707C65.4378 9.42367 65.6475 9.01567 65.6475 8.483C65.6475 7.939 65.4378 7.531 65.0185 7.259C64.6105 6.97567 64.0211 6.834 63.2505 6.834H60.1225ZM63.6925 15.266C65.4038 15.266 66.2595 14.6937 66.2595 13.549C66.2595 12.4043 65.4038 11.832 63.6925 11.832H60.1225V15.266H63.6925ZM75.73 12.801V17H73.52V12.835L68.845 5.1H71.208L74.693 10.897L78.212 5.1H80.388L75.73 12.801ZM91.0833 15.13V17H80.9343V15.521L87.9383 6.97H81.0533V5.1H90.8623V6.579L83.8583 15.13H91.0833ZM101.495 17.17C100.577 17.17 99.6873 17.0397 98.826 16.779C97.976 16.5183 97.3017 16.1727 96.803 15.742L97.568 14.025C98.0553 14.4103 98.6503 14.7277 99.353 14.977C100.067 15.215 100.781 15.334 101.495 15.334C102.379 15.334 103.036 15.1923 103.467 14.909C103.909 14.6257 104.13 14.2517 104.13 13.787C104.13 13.447 104.005 13.1693 103.756 12.954C103.518 12.7273 103.212 12.5517 102.838 12.427C102.464 12.3023 101.954 12.1607 101.308 12.002C100.401 11.7867 99.6647 11.5713 99.098 11.356C98.5427 11.1407 98.061 10.8063 97.653 10.353C97.2563 9.88833 97.058 9.265 97.058 8.483C97.058 7.82567 97.2337 7.23067 97.585 6.698C97.9477 6.154 98.486 5.72333 99.2 5.406C99.9253 5.08867 100.809 4.93 101.852 4.93C102.577 4.93 103.291 5.02067 103.994 5.202C104.697 5.38333 105.303 5.644 105.813 5.984L105.116 7.701C104.595 7.395 104.051 7.16267 103.484 7.004C102.917 6.84533 102.368 6.766 101.835 6.766C100.962 6.766 100.311 6.91333 99.88 7.208C99.4607 7.50267 99.251 7.89367 99.251 8.381C99.251 8.721 99.37 8.99867 99.608 9.214C99.8573 9.42933 100.169 9.59933 100.543 9.724C100.917 9.84867 101.427 9.99033 102.073 10.149C102.957 10.353 103.682 10.5683 104.249 10.795C104.816 11.0103 105.297 11.3447 105.694 11.798C106.102 12.2513 106.306 12.8633 106.306 13.634C106.306 14.2913 106.125 14.8863 105.762 15.419C105.411 15.9517 104.872 16.3767 104.147 16.694C103.422 17.0113 102.538 17.17 101.495 17.17ZM115.365 10.744C115.989 11.0273 116.465 11.4127 116.793 11.9C117.133 12.376 117.303 12.937 117.303 13.583C117.303 14.3083 117.099 14.943 116.691 15.487C116.295 16.031 115.728 16.4503 114.991 16.745C114.255 17.0283 113.399 17.17 112.424 17.17C111.45 17.17 110.594 17.0283 109.857 16.745C109.132 16.4503 108.571 16.031 108.174 15.487C107.778 14.943 107.579 14.3083 107.579 13.583C107.579 12.937 107.744 12.376 108.072 11.9C108.401 11.4127 108.871 11.0273 109.483 10.744C109.007 10.4833 108.639 10.1433 108.378 9.724C108.129 9.29333 108.004 8.80033 108.004 8.245C108.004 7.57633 108.186 6.99267 108.548 6.494C108.922 5.99533 109.444 5.61 110.112 5.338C110.781 5.066 111.552 4.93 112.424 4.93C113.308 4.93 114.085 5.066 114.753 5.338C115.422 5.61 115.943 5.99533 116.317 6.494C116.691 6.99267 116.878 7.57633 116.878 8.245C116.878 8.80033 116.748 9.28767 116.487 9.707C116.227 10.1263 115.853 10.472 115.365 10.744ZM112.424 6.664C111.733 6.664 111.183 6.81133 110.775 7.106C110.379 7.40067 110.18 7.81433 110.18 8.347C110.18 8.857 110.379 9.265 110.775 9.571C111.183 9.86567 111.733 10.013 112.424 10.013C113.127 10.013 113.682 9.86567 114.09 9.571C114.498 9.265 114.702 8.857 114.702 8.347C114.702 7.81433 114.493 7.40067 114.073 7.106C113.665 6.81133 113.116 6.664 112.424 6.664ZM112.424 15.436C113.24 15.436 113.886 15.266 114.362 14.926C114.838 14.586 115.076 14.1157 115.076 13.515C115.076 12.9257 114.838 12.461 114.362 12.121C113.886 11.781 113.24 11.611 112.424 11.611C111.608 11.611 110.968 11.781 110.503 12.121C110.039 12.461 109.806 12.9257 109.806 13.515C109.806 14.1157 110.039 14.586 110.503 14.926C110.968 15.266 111.608 15.436 112.424 15.436ZM122.46 9.707C124.138 9.707 125.379 10.0357 126.183 10.693C126.988 11.339 127.39 12.223 127.39 13.345C127.39 14.059 127.215 14.705 126.863 15.283C126.512 15.861 125.985 16.32 125.282 16.66C124.58 17 123.713 17.17 122.681 17.17C121.831 17.17 121.01 17.051 120.216 16.813C119.423 16.5637 118.754 16.2237 118.21 15.793L119.145 14.076C119.587 14.4387 120.114 14.7277 120.726 14.943C121.35 15.147 121.99 15.249 122.647 15.249C123.429 15.249 124.041 15.0903 124.483 14.773C124.937 14.4443 125.163 13.9967 125.163 13.43C125.163 12.818 124.92 12.359 124.432 12.053C123.956 11.7357 123.135 11.577 121.967 11.577H119.094L119.706 5.1H126.693V6.953H121.576L121.321 9.707H122.46ZM137.201 15.13V17H128.429V15.521L133.155 11.033C133.688 10.523 134.045 10.081 134.226 9.707C134.419 9.32167 134.515 8.942 134.515 8.568C134.515 8.01267 134.328 7.58767 133.954 7.293C133.58 6.99833 133.03 6.851 132.305 6.851C131.092 6.851 130.163 7.26467 129.517 8.092L127.97 6.902C128.435 6.27867 129.058 5.797 129.84 5.457C130.633 5.10567 131.517 4.93 132.492 4.93C133.784 4.93 134.815 5.236 135.586 5.848C136.357 6.46 136.742 7.293 136.742 8.347C136.742 8.993 136.606 9.59933 136.334 10.166C136.062 10.7327 135.541 11.3787 134.77 12.104L131.591 15.13H137.201ZM139.327 5.1H141.537V17H139.327V5.1Z" fill="#1C1C27"/>
<path d="M258.491 15.13V17H249.719V15.521L254.445 11.033C254.978 10.523 255.335 10.081 255.516 9.707C255.709 9.32167 255.805 8.942 255.805 8.568C255.805 8.01267 255.618 7.58767 255.244 7.293C254.87 6.99833 254.32 6.851 253.595 6.851C252.382 6.851 251.453 7.26467 250.807 8.092L249.26 6.902C249.725 6.27867 250.348 5.797 251.13 5.457C251.923 5.10567 252.807 4.93 253.782 4.93C255.074 4.93 256.105 5.236 256.876 5.848C257.647 6.46 258.032 7.293 258.032 8.347C258.032 8.993 257.896 9.59933 257.624 10.166C257.352 10.7327 256.831 11.3787 256.06 12.104L252.881 15.13H258.491ZM263.779 4.93C265.411 4.93 266.674 5.44 267.57 6.46C268.476 7.48 268.93 8.942 268.93 10.846C268.93 12.1833 268.686 13.328 268.199 14.28C267.711 15.2207 267.026 15.9403 266.142 16.439C265.269 16.9263 264.255 17.17 263.099 17.17C262.487 17.17 261.909 17.1077 261.365 16.983C260.832 16.847 260.367 16.6543 259.971 16.405L260.787 14.739C261.376 15.1243 262.13 15.317 263.048 15.317C264.192 15.317 265.088 14.9657 265.734 14.263C266.38 13.5603 266.703 12.546 266.703 11.22V11.203C266.351 11.611 265.904 11.9227 265.36 12.138C264.816 12.342 264.204 12.444 263.524 12.444C262.742 12.444 262.039 12.2967 261.416 12.002C260.792 11.696 260.305 11.2653 259.954 10.71C259.602 10.1547 259.427 9.51433 259.427 8.789C259.427 8.01833 259.619 7.344 260.005 6.766C260.39 6.17667 260.911 5.72333 261.569 5.406C262.226 5.08867 262.963 4.93 263.779 4.93ZM263.949 10.71C264.663 10.71 265.241 10.5173 265.683 10.132C266.136 9.74667 266.363 9.25933 266.363 8.67C266.363 8.092 266.142 7.616 265.7 7.242C265.269 6.85667 264.668 6.664 263.898 6.664C263.206 6.664 262.645 6.851 262.215 7.225C261.784 7.58767 261.569 8.075 261.569 8.687C261.569 9.31033 261.784 9.80333 262.215 10.166C262.645 10.5287 263.223 10.71 263.949 10.71ZM278.961 15.13V17H270.189V15.521L274.915 11.033C275.447 10.523 275.804 10.081 275.986 9.707C276.178 9.32167 276.275 8.942 276.275 8.568C276.275 8.01267 276.088 7.58767 275.714 7.293C275.34 6.99833 274.79 6.851 274.065 6.851C272.852 6.851 271.923 7.26467 271.277 8.092L269.73 6.902C270.194 6.27867 270.818 5.797 271.6 5.457C272.393 5.10567 273.277 4.93 274.252 4.93C275.544 4.93 276.575 5.236 277.346 5.848C278.116 6.46 278.502 7.293 278.502 8.347C278.502 8.993 278.366 9.59933 278.094 10.166C277.822 10.7327 277.3 11.3787 276.53 12.104L273.351 15.13H278.961ZM289.162 5.1V6.579L284.538 17H282.175L286.646 6.97H281.971V8.993H279.914V5.1H289.162ZM295.669 5.1H305.75V6.307H295.669V5.1ZM299.613 8.653H295.669V7.446H305.75V8.653H301.806V17H299.613V8.653Z" fill="#FFA542"/>
<path d="M260.57 28.657C261.411 28.761 262.052 29.047 262.494 29.515C262.936 29.983 263.157 30.568 263.157 31.27C263.157 31.7987 263.023 32.2797 262.754 32.713C262.485 33.1463 262.078 33.493 261.532 33.753C260.995 34.0043 260.336 34.13 259.556 34.13C258.906 34.13 258.278 34.039 257.671 33.857C257.073 33.6663 256.562 33.4063 256.137 33.077L256.865 31.764C257.194 32.0413 257.593 32.2623 258.061 32.427C258.538 32.583 259.027 32.661 259.53 32.661C260.128 32.661 260.596 32.5397 260.934 32.297C261.281 32.0457 261.454 31.7077 261.454 31.283C261.454 30.8583 261.289 30.529 260.96 30.295C260.639 30.0523 260.145 29.931 259.478 29.931H258.646V28.774L260.713 26.317H256.579V24.9H262.78V26.031L260.57 28.657ZM266.982 28.423C268.265 28.423 269.214 28.6743 269.829 29.177C270.445 29.671 270.752 30.347 270.752 31.205C270.752 31.751 270.618 32.245 270.349 32.687C270.081 33.129 269.678 33.48 269.14 33.74C268.603 34 267.94 34.13 267.151 34.13C266.501 34.13 265.873 34.039 265.266 33.857C264.66 33.6663 264.148 33.4063 263.732 33.077L264.447 31.764C264.785 32.0413 265.188 32.2623 265.656 32.427C266.133 32.583 266.623 32.661 267.125 32.661C267.723 32.661 268.191 32.5397 268.529 32.297C268.876 32.0457 269.049 31.7033 269.049 31.27C269.049 30.802 268.863 30.451 268.49 30.217C268.126 29.9743 267.498 29.853 266.605 29.853H264.408L264.876 24.9H270.219V26.317H266.306L266.111 28.423H266.982ZM278.255 32.57V34H271.547V32.869L275.161 29.437C275.568 29.047 275.841 28.709 275.98 28.423C276.127 28.1283 276.201 27.838 276.201 27.552C276.201 27.1273 276.058 26.8023 275.772 26.577C275.486 26.3517 275.065 26.239 274.511 26.239C273.583 26.239 272.873 26.5553 272.379 27.188L271.196 26.278C271.551 25.8013 272.028 25.433 272.626 25.173C273.232 24.9043 273.908 24.77 274.654 24.77C275.642 24.77 276.43 25.004 277.02 25.472C277.609 25.94 277.904 26.577 277.904 27.383C277.904 27.877 277.8 28.3407 277.592 28.774C277.384 29.2073 276.985 29.7013 276.396 30.256L273.965 32.57H278.255ZM286.056 24.9V26.031L282.52 34H280.713L284.132 26.33H280.557V27.877H278.984V24.9H286.056ZM291.032 24.9H298.741V25.823H291.032V24.9ZM294.048 27.617H291.032V26.694H298.741V27.617H295.725V34H294.048V27.617Z" fill="#FFCE7F"/>
<path d="M256.124 29.84H299.547V30.49H256.124V29.84Z" fill="#FFCE7F"/>
<path d="M44.7745 61.297H42.6665V64H40.5245V61.297H33.9965V59.767L39.8615 52.1H42.2245L36.6995 59.427H40.5925V57.03H42.6665V59.427H44.7745V61.297ZM47.3626 64.119C46.9772 64.119 46.6486 63.9887 46.3766 63.728C46.1046 63.456 45.9686 63.116 45.9686 62.708C45.9686 62.2887 46.0989 61.9487 46.3596 61.688C46.6316 61.4273 46.9659 61.297 47.3626 61.297C47.7592 61.297 48.0879 61.4273 48.3486 61.688C48.6206 61.9487 48.7566 62.2887 48.7566 62.708C48.7566 63.116 48.6206 63.456 48.3486 63.728C48.0766 63.9887 47.7479 64.119 47.3626 64.119ZM58.9139 52.1V53.579L54.2899 64H51.9269L56.3979 53.97H51.7229V55.993H49.6659V52.1H58.9139Z" fill="#838383"/>
<path d="M11.751 63.6026L4.54039 67.9608L6.50068 59.8272L0.0849609 54.3885L8.50635 53.7209L11.751 46L14.9957 53.7209L23.4183 54.3885L17.0014 59.8272L18.9616 67.9608L11.751 63.6026Z" fill="#FFCE7F"/>
</svg>
