<svg width="62" height="60" viewBox="0 0 62 60" fill="none" xmlns="http://www.w3.org/2000/svg">
<path d="M31.0009 21.6543C33.5848 19.3724 37.5777 19.4482 40.0669 21.901C42.5551 24.3549 42.6409 28.2629 40.3265 30.812L30.9987 40L21.6731 30.812C19.3587 28.2629 19.4456 24.3484 21.9327 21.901C24.4241 19.4514 28.4093 19.3692 31.0009 21.6543ZM38.5094 23.4298C36.8594 21.8047 34.1974 21.7387 32.4705 23.2643L31.002 24.5604L29.5324 23.2653C27.8 21.7376 25.1435 21.8047 23.4891 23.432C21.8502 25.0441 21.7677 27.6245 23.2779 29.3297L30.9998 36.937L38.7217 29.3308C40.233 27.6245 40.1505 25.0473 38.5094 23.4298Z" fill="#838383"/>
</svg>
